<?xml version="1.0" standalone="no"?>
<!DOCTYPE svg PUBLIC "-//W3C//DTD SVG 20010904//EN"
 "http://www.w3.org/TR/2001/REC-SVG-20010904/DTD/svg10.dtd">
<svg version="1.0" xmlns="http://www.w3.org/2000/svg"
 width="860.000000pt" height="860.000000pt" viewBox="0 0 860.000000 860.000000"
 preserveAspectRatio="xMidYMid meet">
<metadata>
Created by potrace 1.11, written by Peter Selinger 2001-2013
</metadata>
<g transform="translate(0.000000,860.000000) scale(0.100000,-0.100000)"
fill="#000000" stroke="none">
<path d="M650 8189 c-92 -10 -144 -25 -230 -67 -99 -49 -211 -160 -262 -257
-75 -146 -69 101 -69 -2985 0 -3056 -5 -2815 64 -2944 77 -144 225 -251 387
-280 14 -3 880 -5 1925 -6 1604 -1 1894 -3 1860 -14 -66 -23 -624 -199 -635
-201 -3 0 -21 -6 -40 -12 -19 -7 -121 -39 -225 -72 -171 -55 -192 -64 -208
-90 -16 -28 -111 -128 -153 -162 -110 -87 -323 -174 -504 -205 -14 -3 -49 -9
-79 -14 -141 -25 -222 -111 -223 -235 -1 -92 50 -172 137 -216 40 -20 57 -20
1887 -21 l1846 0 55 25 c90 41 143 131 134 225 -6 65 -28 110 -71 153 -40 40
-95 60 -226 84 -452 84 -733 338 -785 713 l-6 42 1393 1 c766 0 1402 2 1413 4
11 2 36 7 55 10 19 4 69 23 110 43 141 70 258 219 289 371 15 70 16 5517 2
5603 -12 71 -55 180 -94 238 -104 153 -290 261 -466 269 -125 6 -7222 5 -7281
0z m7286 -515 c63 -30 59 149 59 -2353 0 -2270 0 -2286 -20 -2313 -11 -15 -33
-32 -50 -37 -47 -15 -7255 -9 -7280 6 -11 6 -27 24 -37 40 -15 26 -16 197 -15
2313 l2 2285 23 32 c14 19 33 33 50 35 15 2 1649 4 3632 5 3137 1 3609 -1
3636 -13z m-3555 -5134 c52 -14 114 -59 149 -107 152 -206 3 -488 -252 -477
-210 9 -344 236 -253 427 15 32 69 95 107 124 49 37 174 54 249 33z"/>
<path d="M6327 6963 c-1 -1 -60 -4 -132 -7 -71 -4 -173 -9 -225 -11 -52 -3
-141 -7 -197 -10 -139 -5 -173 -24 -173 -95 0 -23 26 -54 138 -168 l139 -140
-833 -833 -833 -833 -505 504 c-278 277 -517 510 -530 517 -14 7 -40 15 -58
16 -82 8 -85 5 -617 -527 -475 -475 -504 -506 -516 -552 -16 -64 -3 -109 50
-174 68 -82 169 -109 242 -64 15 10 207 197 426 415 l397 398 488 -487 c268
-268 504 -501 526 -517 33 -25 48 -29 95 -29 47 0 65 6 101 31 25 18 440 427
922 910 482 483 890 891 906 906 l29 28 138 -135 c75 -74 146 -138 157 -142
50 -16 120 60 117 127 -2 27 11 335 16 389 9 95 16 420 10 439 -12 39 -53 50
-170 48 -58 -1 -107 -3 -108 -4z"/>
<path d="M5768 5532 c-197 -196 -360 -360 -364 -364 -8 -9 -8 -1451 1 -1480
15 -50 57 -97 102 -114 37 -15 81 -17 267 -17 205 0 224 2 263 21 43 22 74 58
89 102 8 26 13 2210 4 2210 -3 0 -166 -161 -362 -358z"/>
<path d="M2749 4737 c-199 -198 -347 -338 -366 -346 l-33 -13 0 -343 c0 -338
0 -342 23 -386 17 -31 37 -50 70 -68 46 -23 54 -24 270 -24 202 0 226 2 268
20 46 21 79 57 95 103 6 19 14 1390 8 1390 -1 0 -152 -150 -335 -333z"/>
<path d="M4775 4540 c-160 -159 -310 -304 -335 -322 -25 -17 -48 -37 -52 -42
-4 -6 -7 -114 -7 -241 1 -248 5 -274 56 -327 15 -15 41 -33 60 -39 46 -15 445
-16 498 -1 46 13 97 62 112 107 6 19 10 232 11 551 0 492 -1 522 -19 562 -11
23 -23 42 -27 42 -4 0 -138 -130 -297 -290z"/>
<path d="M3374 4768 c-4 -13 -8 -255 -9 -538 -1 -539 1 -566 43 -613 9 -11 37
-29 61 -40 40 -17 67 -20 266 -20 207 0 225 1 266 21 53 26 86 72 96 133 5 24
7 134 5 244 l-2 201 -61 29 c-52 24 -106 73 -352 317 -159 158 -293 288 -298
288 -4 0 -11 -10 -15 -22z"/>
</g>
</svg>
